<?xml version="1.0" standalone="no"?>
<!DOCTYPE svg PUBLIC "-//W3C//DTD SVG 1.1//EN"
"http://www.w3.org/Graphics/SVG/1.1/DTD/svg11.dtd">

<svg width="472" height="349" view_box="0 0 472 349"
xmlns="http://www.w3.org/2000/svg"
xmlns:link="http://www.w3.org/1999/xlink">\n\n<desc>Généré par Mocodo 2.3.7 le Fri, 09 Apr 2021 05:28:50</desc>

<rect id="frame" x="0" y="0" width="472" height="349" fill="none" stroke="none" stroke-width="0"/>

<!-- Association has -->
<line x1="49" y1="224" x2="165" y2="224" stroke="#726f83" stroke-width="1.5"/>
<text x="95" y="241.0" fill="#726f83" font-family="Arial" font-size="12">1,1</text>
<line x1="296" y1="224" x2="165" y2="224" stroke="#726f83" stroke-width="1.5"/>
<text x="240" y="241.0" fill="#726f83" font-family="Arial" font-size="12">0,N</text>
<g id="association-has">
	<path d="M 173 196 a 14 14 90 0 1 14 14 V 223 h -44 V 210 a 14 14 90 0 1 14 -14" fill="#b2bba4" stroke="#b2bba4" stroke-width="0"/>
	<path d="M 187 223.0 v 15 a 14 14 90 0 1 -14 14 H 157 a 14 14 90 0 1 -14 -14 V 223.0 H 44" fill="#ccd6ba" stroke="#ccd6ba" stroke-width="0"/>
	<rect x="143" y="196" width="44" height="56" fill="none" rx="14" stroke="#85956b" stroke-width="3"/>
	<line x1="143" y1="223" x2="187" y2="223" stroke="#85956b" stroke-width="1.5"/>
	<text x="152" y="216.3" fill="#27360c" font-family="Arial Black" font-size="13">has</text>
</g>

<!-- Association play -->
<line x1="165" y1="81" x2="49" y2="81" stroke="#726f83" stroke-width="1.5"/>
<text x="80" y="98.0" fill="#726f83" font-family="Arial" font-size="12">0,N</text>
<line x1="49" y1="224" x2="49" y2="81" stroke="#726f83" stroke-width="1.5"/>
<text x="55.0" y="170" fill="#726f83" font-family="Arial" font-size="12">1,N</text>
<g id="association-play">
	<path d="M 60 53 a 14 14 90 0 1 14 14 V 80 h -50 V 67 a 14 14 90 0 1 14 -14" fill="#b2bba4" stroke="#b2bba4" stroke-width="0"/>
	<path d="M 74 80.0 v 15 a 14 14 90 0 1 -14 14 H 38 a 14 14 90 0 1 -14 -14 V 80.0 H 50" fill="#ccd6ba" stroke="#ccd6ba" stroke-width="0"/>
	<rect x="24" y="53" width="50" height="56" fill="none" rx="14" stroke="#85956b" stroke-width="3"/>
	<line x1="24" y1="80" x2="74" y2="80" stroke="#85956b" stroke-width="1.5"/>
	<text x="33" y="73.3" fill="#27360c" font-family="Arial Black" font-size="13">play</text>
</g>

<!-- Association contains -->
<line x1="165" y1="81" x2="296" y2="81" stroke="#726f83" stroke-width="1.5"/>
<text x="229" y="98.0" fill="#726f83" font-family="Arial" font-size="12">1,N</text>
<line x1="416" y1="81" x2="296" y2="81" stroke="#726f83" stroke-width="1.5"/>
<text x="342" y="98.0" fill="#726f83" font-family="Arial" font-size="12">0,N</text>
<g id="association-contains">
	<path d="M 322 53 a 14 14 90 0 1 14 14 V 80 h -80 V 67 a 14 14 90 0 1 14 -14" fill="#b2bba4" stroke="#b2bba4" stroke-width="0"/>
	<path d="M 336 80.0 v 15 a 14 14 90 0 1 -14 14 H 270 a 14 14 90 0 1 -14 -14 V 80.0 H 80" fill="#ccd6ba" stroke="#ccd6ba" stroke-width="0"/>
	<rect x="256" y="53" width="80" height="56" fill="none" rx="14" stroke="#85956b" stroke-width="3"/>
	<line x1="256" y1="80" x2="336" y2="80" stroke="#85956b" stroke-width="1.5"/>
	<text x="265" y="73.3" fill="#27360c" font-family="Arial Black" font-size="13">contains</text>
</g>

<!-- Association categorize -->
<line x1="416" y1="81" x2="416" y2="224" stroke="#726f83" stroke-width="1.5"/>
<text x="422.0" y="134" fill="#726f83" font-family="Arial" font-size="12">1,N</text>
<line x1="296" y1="313" x2="416" y2="224" stroke="#726f83" stroke-width="1.5"/>
<text x="329" y="303.250425361" fill="#726f83" font-family="Arial" font-size="12">1,N</text>
<g id="association-categorize">
	<path d="M 449 196 a 14 14 90 0 1 14 14 V 223 h -94 V 210 a 14 14 90 0 1 14 -14" fill="#b2bba4" stroke="#b2bba4" stroke-width="0"/>
	<path d="M 463 223.0 v 15 a 14 14 90 0 1 -14 14 H 383 a 14 14 90 0 1 -14 -14 V 223.0 H 94" fill="#ccd6ba" stroke="#ccd6ba" stroke-width="0"/>
	<rect x="369" y="196" width="94" height="56" fill="none" rx="14" stroke="#85956b" stroke-width="3"/>
	<line x1="369" y1="223" x2="463" y2="223" stroke="#85956b" stroke-width="1.5"/>
	<text x="378" y="216.3" fill="#27360c" font-family="Arial Black" font-size="13">categorize</text>
</g>

<!-- Entity ROLE -->
<g id="entity-ROLE">
	<g id="frame-ROLE">
		<rect x="267" y="188" width="58" height="28" fill="#97b8ff" stroke="#97b8ff" stroke-width="0"/>
		<rect x="267" y="216.0" width="58" height="44" fill="#c0d4ff" stroke="#c0d4ff" stroke-width="0"/>
		<rect x="267" y="188" width="58" height="72" fill="none" stroke="#578dff" stroke-width="3"/>
		<line x1="267" y1="216" x2="325" y2="216" stroke="#578dff" stroke-width="1.5"/>
	</g>
	<text x="276" y="208.3" fill="#131114" font-family="Arial Black" font-size="13">ROLE</text>
	<text x="275" y="232.2" fill="#3e3c42" font-family="Arial" font-size="14">admin</text>
	<line x1="275" y1="235" x2="316" y2="235" stroke="#3e3c42" stroke-width="1.2"/>
	<text x="275" y="250.2" fill="#3e3c42" font-family="Arial" font-size="14">user</text>
</g>

<!-- Entity GAME -->
<g id="entity-GAME">
	<g id="frame-GAME">
		<rect x="107" y="9" width="116" height="28" fill="#97b8ff" stroke="#97b8ff" stroke-width="0"/>
		<rect x="107" y="37.0" width="116" height="116" fill="#c0d4ff" stroke="#c0d4ff" stroke-width="0"/>
		<rect x="107" y="9" width="116" height="144" fill="none" stroke="#578dff" stroke-width="3"/>
		<line x1="107" y1="37" x2="223" y2="37" stroke="#578dff" stroke-width="1.5"/>
	</g>
	<text x="143" y="29.3" fill="#131114" font-family="Arial Black" font-size="13">GAME</text>
	<text x="115" y="53.2" fill="#3e3c42" font-family="Arial" font-size="14">room</text>
	<line x1="115" y1="56" x2="149" y2="56" stroke="#3e3c42" stroke-width="1.2"/>
	<text x="115" y="71.2" fill="#3e3c42" font-family="Arial" font-size="14">score</text>
	<text x="115" y="89.2" fill="#3e3c42" font-family="Arial" font-size="14">position</text>
	<text x="115" y="107.2" fill="#3e3c42" font-family="Arial" font-size="14">number_player</text>
	<text x="115" y="125.2" fill="#3e3c42" font-family="Arial" font-size="14">date</text>
	<text x="115" y="143.2" fill="#3e3c42" font-family="Arial" font-size="14">exact_answer</text>
</g>

<!-- Entity TAG -->
<g id="entity-TAG">
	<g id="frame-TAG">
		<rect x="269" y="286" width="54" height="28" fill="#97b8ff" stroke="#97b8ff" stroke-width="0"/>
		<rect x="269" y="314.0" width="54" height="26" fill="#c0d4ff" stroke="#c0d4ff" stroke-width="0"/>
		<rect x="269" y="286" width="54" height="54" fill="none" stroke="#578dff" stroke-width="3"/>
		<line x1="269" y1="314" x2="323" y2="314" stroke="#578dff" stroke-width="1.5"/>
	</g>
	<text x="280" y="306.3" fill="#131114" font-family="Arial Black" font-size="13">TAG</text>
	<text x="277" y="330.2" fill="#3e3c42" font-family="Arial" font-size="14">name</text>
	<line x1="277" y1="333" x2="315" y2="333" stroke="#3e3c42" stroke-width="1.2"/>
</g>

<!-- Entity QUESTION -->
<g id="entity-QUESTION">
	<g id="frame-QUESTION">
		<rect x="369" y="45" width="94" height="28" fill="#97b8ff" stroke="#97b8ff" stroke-width="0"/>
		<rect x="369" y="73.0" width="94" height="44" fill="#c0d4ff" stroke="#c0d4ff" stroke-width="0"/>
		<rect x="369" y="45" width="94" height="72" fill="none" stroke="#578dff" stroke-width="3"/>
		<line x1="369" y1="73" x2="463" y2="73" stroke="#578dff" stroke-width="1.5"/>
	</g>
	<text x="377" y="65.3" fill="#131114" font-family="Arial Black" font-size="13">QUESTION</text>
	<text x="377" y="89.2" fill="#3e3c42" font-family="Arial" font-size="14">answer</text>
	<line x1="377" y1="92" x2="425" y2="92" stroke="#3e3c42" stroke-width="1.2"/>
	<text x="377" y="107.2" fill="#3e3c42" font-family="Arial" font-size="14">content</text>
</g>

<!-- Entity USER -->
<g id="entity-USER">
	<g id="frame-USER">
		<rect x="9" y="179" width="80" height="28" fill="#97b8ff" stroke="#97b8ff" stroke-width="0"/>
		<rect x="9" y="207.0" width="80" height="62" fill="#c0d4ff" stroke="#c0d4ff" stroke-width="0"/>
		<rect x="9" y="179" width="80" height="90" fill="none" stroke="#578dff" stroke-width="3"/>
		<line x1="9" y1="207" x2="89" y2="207" stroke="#578dff" stroke-width="1.5"/>
	</g>
	<text x="28" y="199.3" fill="#131114" font-family="Arial Black" font-size="13">USER</text>
	<text x="17" y="223.2" fill="#3e3c42" font-family="Arial" font-size="14">email</text>
	<line x1="17" y1="226" x2="53" y2="226" stroke="#3e3c42" stroke-width="1.2"/>
	<text x="17" y="241.2" fill="#3e3c42" font-family="Arial" font-size="14">password</text>
	<text x="17" y="259.2" fill="#3e3c42" font-family="Arial" font-size="14">pseudo</text>
</g>
</svg>