<?xml version="1.0" standalone="no"?>
<!DOCTYPE svg PUBLIC "-//W3C//DTD SVG 1.1//EN"
"http://www.w3.org/Graphics/SVG/1.1/DTD/svg11.dtd">

<svg width="302" height="347" view_box="0 0 302 347"
xmlns="http://www.w3.org/2000/svg"
xmlns:link="http://www.w3.org/1999/xlink">\n\n<desc>Généré par Mocodo 2.3.7 le Mon, 12 Apr 2021 05:45:13</desc>

<rect id="frame" x="0" y="0" width="302" height="347" fill="#ffffbf" stroke="none" stroke-width="0"/>

<!-- Association categorize -->
<line x1="254" y1="43" x2="254" y2="152" stroke="#f46d43" stroke-width="2"/>
<text x="259.0" y="94" fill="#1a9850" font-family="Verdana" font-size="12">1,N</text>
<line x1="254" y1="287" x2="254" y2="152" stroke="#f46d43" stroke-width="2"/>
<text x="259.0" y="254" fill="#1a9850" font-family="Verdana" font-size="12">1,N</text>
<g id="association-categorize">
	<path d="M 279 127 a 14 14 90 0 1 14 14 V 152 h -78 V 141 a 14 14 90 0 1 14 -14" fill="#fdae61" stroke="#fdae61" stroke-width="0"/>
	<path d="M 293 152.0 v 11 a 14 14 90 0 1 -14 14 H 229 a 14 14 90 0 1 -14 -14 V 152.0 H 78" fill="#fee08b" stroke="#fee08b" stroke-width="0"/>
	<rect x="215" y="127" width="78" height="50" fill="none" rx="14" stroke="#f46d43" stroke-width="2"/>
	<line x1="215" y1="152" x2="293" y2="152" stroke="#f46d43" stroke-width="1"/>
	<text x="222" y="144.7" fill="#000000" font-family="Verdana" font-size="12">categorize</text>
</g>

<!-- Association play -->
<line x1="63" y1="43" x2="63" y2="152" stroke="#f46d43" stroke-width="2"/>
<text x="68.0" y="85" fill="#1a9850" font-family="Verdana" font-size="12">0,N</text>
<line x1="63" y1="287" x2="63" y2="152" stroke="#f46d43" stroke-width="2"/>
<text x="68.0" y="228" fill="#1a9850" font-family="Verdana" font-size="12">0,N</text>
<g id="association-play">
	<path d="M 103 93 a 14 14 90 0 1 14 14 V 118 h -108 V 107 a 14 14 90 0 1 14 -14" fill="#fdae61" stroke="#fdae61" stroke-width="0"/>
	<path d="M 117 118.0 v 79 a 14 14 90 0 1 -14 14 H 23 a 14 14 90 0 1 -14 -14 V 118.0 H 108" fill="#fee08b" stroke="#fee08b" stroke-width="0"/>
	<rect x="9" y="93" width="108" height="118" fill="none" rx="14" stroke="#f46d43" stroke-width="2"/>
	<line x1="9" y1="118" x2="117" y2="118" stroke="#f46d43" stroke-width="1"/>
	<text x="50" y="110.7" fill="#000000" font-family="Verdana" font-size="12">play</text>
	<text x="16" y="135.7" fill="#000000" font-family="Verdana" font-size="12">score</text>
	<text x="16" y="152.8" fill="#000000" font-family="Verdana" font-size="12">position</text>
	<text x="16" y="169.8" fill="#000000" font-family="Verdana" font-size="12">number_player</text>
	<text x="16" y="186.8" fill="#000000" font-family="Verdana" font-size="12">date</text>
	<text x="16" y="203.8" fill="#000000" font-family="Verdana" font-size="12">exact_answer</text>
</g>

<!-- Association contains -->
<line x1="63" y1="43" x2="151" y2="43" stroke="#f46d43" stroke-width="2"/>
<text x="91" y="60.0" fill="#1a9850" font-family="Verdana" font-size="12">1,N</text>
<line x1="254" y1="43" x2="151" y2="43" stroke="#f46d43" stroke-width="2"/>
<text x="189" y="60.0" fill="#1a9850" font-family="Verdana" font-size="12">0,N</text>
<g id="association-contains">
	<path d="M 170 18 a 14 14 90 0 1 14 14 V 43 h -66 V 32 a 14 14 90 0 1 14 -14" fill="#fdae61" stroke="#fdae61" stroke-width="0"/>
	<path d="M 184 43.0 v 11 a 14 14 90 0 1 -14 14 H 132 a 14 14 90 0 1 -14 -14 V 43.0 H 66" fill="#fee08b" stroke="#fee08b" stroke-width="0"/>
	<rect x="118" y="18" width="66" height="50" fill="none" rx="14" stroke="#f46d43" stroke-width="2"/>
	<line x1="118" y1="43" x2="184" y2="43" stroke="#f46d43" stroke-width="1"/>
	<text x="125" y="35.7" fill="#000000" font-family="Verdana" font-size="12">contains</text>
</g>

<!-- Entity GAME -->
<g id="entity-GAME">
	<g id="frame-GAME">
		<rect x="40" y="18" width="46" height="25" fill="#a6d96a" stroke="#a6d96a" stroke-width="0"/>
		<rect x="40" y="43.0" width="46" height="25" fill="#d9ef8b" stroke="#d9ef8b" stroke-width="0"/>
		<rect x="40" y="18" width="46" height="50" fill="none" stroke="#66bd63" stroke-width="2"/>
		<line x1="40" y1="43" x2="86" y2="43" stroke="#66bd63" stroke-width="1"/>
	</g>
	<text x="45" y="35.7" fill="#000000" font-family="Verdana" font-size="12">GAME</text>
	<text x="45" y="60.8" fill="#000000" font-family="Verdana" font-size="12">room</text>
	<line x1="45" y1="63" x2="77" y2="63" stroke="#000000" stroke-width="1"/>
</g>

<!-- Entity TAG -->
<g id="entity-TAG">
	<g id="frame-TAG">
		<rect x="231" y="262" width="46" height="25" fill="#a6d96a" stroke="#a6d96a" stroke-width="0"/>
		<rect x="231" y="287.0" width="46" height="25" fill="#d9ef8b" stroke="#d9ef8b" stroke-width="0"/>
		<rect x="231" y="262" width="46" height="50" fill="none" stroke="#66bd63" stroke-width="2"/>
		<line x1="231" y1="287" x2="277" y2="287" stroke="#66bd63" stroke-width="1"/>
	</g>
	<text x="241" y="279.7" fill="#000000" font-family="Verdana" font-size="12">TAG</text>
	<text x="236" y="304.8" fill="#000000" font-family="Verdana" font-size="12">name</text>
	<line x1="236" y1="307" x2="271" y2="307" stroke="#000000" stroke-width="1"/>
</g>

<!-- Entity QUESTION -->
<g id="entity-QUESTION">
	<g id="frame-QUESTION">
		<rect x="216" y="9" width="76" height="25" fill="#a6d96a" stroke="#a6d96a" stroke-width="0"/>
		<rect x="216" y="34.0" width="76" height="43" fill="#d9ef8b" stroke="#d9ef8b" stroke-width="0"/>
		<rect x="216" y="9" width="76" height="68" fill="none" stroke="#66bd63" stroke-width="2"/>
		<line x1="216" y1="34" x2="292" y2="34" stroke="#66bd63" stroke-width="1"/>
	</g>
	<text x="221" y="26.7" fill="#000000" font-family="Verdana" font-size="12">QUESTION</text>
	<text x="221" y="51.8" fill="#000000" font-family="Verdana" font-size="12">answer</text>
	<line x1="221" y1="54" x2="265" y2="54" stroke="#000000" stroke-width="1"/>
	<text x="221" y="68.8" fill="#000000" font-family="Verdana" font-size="12">content</text>
</g>

<!-- Entity USER -->
<g id="entity-USER">
	<g id="frame-USER">
		<rect x="29" y="236" width="68" height="25" fill="#a6d96a" stroke="#a6d96a" stroke-width="0"/>
		<rect x="29" y="261.0" width="68" height="77" fill="#d9ef8b" stroke="#d9ef8b" stroke-width="0"/>
		<rect x="29" y="236" width="68" height="102" fill="none" stroke="#66bd63" stroke-width="2"/>
		<line x1="29" y1="261" x2="97" y2="261" stroke="#66bd63" stroke-width="1"/>
	</g>
	<text x="46" y="253.7" fill="#000000" font-family="Verdana" font-size="12">USER</text>
	<text x="34" y="278.7" fill="#000000" font-family="Verdana" font-size="12">email</text>
	<line x1="34" y1="281" x2="68" y2="281" stroke="#000000" stroke-width="1"/>
	<text x="34" y="295.8" fill="#000000" font-family="Verdana" font-size="12">password</text>
	<text x="34" y="312.8" fill="#000000" font-family="Verdana" font-size="12">pseudo</text>
	<text x="34" y="329.8" fill="#000000" font-family="Verdana" font-size="12">role</text>
</g>
</svg>