<?xml version="1.0" standalone="no"?>
<!DOCTYPE svg PUBLIC "-//W3C//DTD SVG 1.1//EN"
"http://www.w3.org/Graphics/SVG/1.1/DTD/svg11.dtd">

<svg width="594" height="376" view_box="0 0 594 376"
xmlns="http://www.w3.org/2000/svg"
xmlns:link="http://www.w3.org/1999/xlink">\n\n<desc>Généré par Mocodo 2.3.7 le Fri, 09 Apr 2021 05:37:48</desc>

<rect id="frame" x="0" y="0" width="594" height="376" fill="none" stroke="none" stroke-width="0"/>

<!-- Association play -->
<line x1="287" y1="81" x2="171" y2="81" stroke="#726f83" stroke-width="1.5"/>
<text x="202" y="98.0" fill="#726f83" font-family="Arial" font-size="12">0,N</text>
<line x1="171" y1="224" x2="171" y2="81" stroke="#726f83" stroke-width="1.5"/>
<text x="177.0" y="170" fill="#726f83" font-family="Arial" font-size="12">1,N</text>
<g id="association-play">
	<path d="M 182 53 a 14 14 90 0 1 14 14 V 80 h -50 V 67 a 14 14 90 0 1 14 -14" fill="#b2bba4" stroke="#b2bba4" stroke-width="0"/>
	<path d="M 196 80.0 v 15 a 14 14 90 0 1 -14 14 H 160 a 14 14 90 0 1 -14 -14 V 80.0 H 50" fill="#ccd6ba" stroke="#ccd6ba" stroke-width="0"/>
	<rect x="146" y="53" width="50" height="56" fill="none" rx="14" stroke="#85956b" stroke-width="3"/>
	<line x1="146" y1="80" x2="196" y2="80" stroke="#85956b" stroke-width="1.5"/>
	<text x="155" y="73.3" fill="#27360c" font-family="Arial Black" font-size="13">play</text>
</g>

<!-- Association own -->
<line x1="171" y1="224" x2="61" y2="224" stroke="#726f83" stroke-width="1.5"/>
<text x="107" y="241.0" fill="#726f83" font-family="Arial" font-size="12">0,1</text>
<line x1="61" y1="81" x2="61" y2="224" stroke="#726f83" stroke-width="1.5"/>
<text x="67.0" y="125" fill="#726f83" font-family="Arial" font-size="12">0,N</text>
<g id="association-own">
	<path d="M 72 196 a 14 14 90 0 1 14 14 V 223 h -50 V 210 a 14 14 90 0 1 14 -14" fill="#b2bba4" stroke="#b2bba4" stroke-width="0"/>
	<path d="M 86 223.0 v 15 a 14 14 90 0 1 -14 14 H 50 a 14 14 90 0 1 -14 -14 V 223.0 H 50" fill="#ccd6ba" stroke="#ccd6ba" stroke-width="0"/>
	<rect x="36" y="196" width="50" height="56" fill="none" rx="14" stroke="#85956b" stroke-width="3"/>
	<line x1="36" y1="223" x2="86" y2="223" stroke="#85956b" stroke-width="1.5"/>
	<text x="45" y="216.3" fill="#27360c" font-family="Arial Black" font-size="13">own</text>
</g>

<!-- Association contains -->
<line x1="287" y1="81" x2="418" y2="81" stroke="#726f83" stroke-width="1.5"/>
<text x="351" y="98.0" fill="#726f83" font-family="Arial" font-size="12">1,N</text>
<line x1="538" y1="81" x2="418" y2="81" stroke="#726f83" stroke-width="1.5"/>
<text x="464" y="98.0" fill="#726f83" font-family="Arial" font-size="12">0,N</text>
<g id="association-contains">
	<path d="M 444 53 a 14 14 90 0 1 14 14 V 80 h -80 V 67 a 14 14 90 0 1 14 -14" fill="#b2bba4" stroke="#b2bba4" stroke-width="0"/>
	<path d="M 458 80.0 v 15 a 14 14 90 0 1 -14 14 H 392 a 14 14 90 0 1 -14 -14 V 80.0 H 80" fill="#ccd6ba" stroke="#ccd6ba" stroke-width="0"/>
	<rect x="378" y="53" width="80" height="56" fill="none" rx="14" stroke="#85956b" stroke-width="3"/>
	<line x1="378" y1="80" x2="458" y2="80" stroke="#85956b" stroke-width="1.5"/>
	<text x="387" y="73.3" fill="#27360c" font-family="Arial Black" font-size="13">contains</text>
</g>

<!-- Association send -->
<line x1="61" y1="331" x2="171" y2="331" stroke="#726f83" stroke-width="1.5"/>
<text x="111" y="348.0" fill="#726f83" font-family="Arial" font-size="12">0,N</text>
<line x1="171" y1="224" x2="171" y2="331" stroke="#726f83" stroke-width="1.5"/>
<text x="177.0" y="286" fill="#726f83" font-family="Arial" font-size="12">0,N</text>
<g id="association-send">
	<path d="M 184 303 a 14 14 90 0 1 14 14 V 330 h -54 V 317 a 14 14 90 0 1 14 -14" fill="#b2bba4" stroke="#b2bba4" stroke-width="0"/>
	<path d="M 198 330.0 v 15 a 14 14 90 0 1 -14 14 H 158 a 14 14 90 0 1 -14 -14 V 330.0 H 54" fill="#ccd6ba" stroke="#ccd6ba" stroke-width="0"/>
	<rect x="144" y="303" width="54" height="56" fill="none" rx="14" stroke="#85956b" stroke-width="3"/>
	<line x1="144" y1="330" x2="198" y2="330" stroke="#85956b" stroke-width="1.5"/>
	<text x="153" y="323.3" fill="#27360c" font-family="Arial Black" font-size="13">send</text>
</g>

<!-- Association categorize -->
<line x1="538" y1="81" x2="538" y2="224" stroke="#726f83" stroke-width="1.5"/>
<text x="544.0" y="134" fill="#726f83" font-family="Arial" font-size="12">1,N</text>
<line x1="538" y1="331" x2="538" y2="224" stroke="#726f83" stroke-width="1.5"/>
<text x="544.0" y="295" fill="#726f83" font-family="Arial" font-size="12">1,N</text>
<g id="association-categorize">
	<path d="M 571 196 a 14 14 90 0 1 14 14 V 223 h -94 V 210 a 14 14 90 0 1 14 -14" fill="#b2bba4" stroke="#b2bba4" stroke-width="0"/>
	<path d="M 585 223.0 v 15 a 14 14 90 0 1 -14 14 H 505 a 14 14 90 0 1 -14 -14 V 223.0 H 94" fill="#ccd6ba" stroke="#ccd6ba" stroke-width="0"/>
	<rect x="491" y="196" width="94" height="56" fill="none" rx="14" stroke="#85956b" stroke-width="3"/>
	<line x1="491" y1="223" x2="585" y2="223" stroke="#85956b" stroke-width="1.5"/>
	<text x="500" y="216.3" fill="#27360c" font-family="Arial Black" font-size="13">categorize</text>
</g>

<!-- Association has -->
<line x1="171" y1="224" x2="287" y2="224" stroke="#726f83" stroke-width="1.5"/>
<text x="217" y="241.0" fill="#726f83" font-family="Arial" font-size="12">1,1</text>
<line x1="418" y1="224" x2="287" y2="224" stroke="#726f83" stroke-width="1.5"/>
<text x="362" y="241.0" fill="#726f83" font-family="Arial" font-size="12">0,N</text>
<g id="association-has">
	<path d="M 295 196 a 14 14 90 0 1 14 14 V 223 h -44 V 210 a 14 14 90 0 1 14 -14" fill="#b2bba4" stroke="#b2bba4" stroke-width="0"/>
	<path d="M 309 223.0 v 15 a 14 14 90 0 1 -14 14 H 279 a 14 14 90 0 1 -14 -14 V 223.0 H 44" fill="#ccd6ba" stroke="#ccd6ba" stroke-width="0"/>
	<rect x="265" y="196" width="44" height="56" fill="none" rx="14" stroke="#85956b" stroke-width="3"/>
	<line x1="265" y1="223" x2="309" y2="223" stroke="#85956b" stroke-width="1.5"/>
	<text x="274" y="216.3" fill="#27360c" font-family="Arial Black" font-size="13">has</text>
</g>

<!-- Entity TAG -->
<g id="entity-TAG">
	<g id="frame-TAG">
		<rect x="511" y="304" width="54" height="28" fill="#97b8ff" stroke="#97b8ff" stroke-width="0"/>
		<rect x="511" y="332.0" width="54" height="26" fill="#c0d4ff" stroke="#c0d4ff" stroke-width="0"/>
		<rect x="511" y="304" width="54" height="54" fill="none" stroke="#578dff" stroke-width="3"/>
		<line x1="511" y1="332" x2="565" y2="332" stroke="#578dff" stroke-width="1.5"/>
	</g>
	<text x="522" y="324.3" fill="#131114" font-family="Arial Black" font-size="13">TAG</text>
	<text x="519" y="348.2" fill="#3e3c42" font-family="Arial" font-size="14">name</text>
	<line x1="519" y1="351" x2="557" y2="351" stroke="#3e3c42" stroke-width="1.2"/>
</g>

<!-- Entity FRIENDLIST -->
<g id="entity-FRIENDLIST">
	<g id="frame-FRIENDLIST">
		<rect x="9" y="54" width="104" height="28" fill="#97b8ff" stroke="#97b8ff" stroke-width="0"/>
		<rect x="9" y="82.0" width="104" height="26" fill="#c0d4ff" stroke="#c0d4ff" stroke-width="0"/>
		<rect x="9" y="54" width="104" height="54" fill="none" stroke="#578dff" stroke-width="3"/>
		<line x1="9" y1="82" x2="113" y2="82" stroke="#578dff" stroke-width="1.5"/>
	</g>
	<text x="17" y="74.3" fill="#131114" font-family="Arial Black" font-size="13">FRIENDLIST</text>
	<text x="17" y="98.2" fill="#3e3c42" font-family="Arial" font-size="14">username</text>
	<line x1="17" y1="101" x2="83" y2="101" stroke="#3e3c42" stroke-width="1.2"/>
</g>

<!-- Entity QUESTION -->
<g id="entity-QUESTION">
	<g id="frame-QUESTION">
		<rect x="491" y="45" width="94" height="28" fill="#97b8ff" stroke="#97b8ff" stroke-width="0"/>
		<rect x="491" y="73.0" width="94" height="44" fill="#c0d4ff" stroke="#c0d4ff" stroke-width="0"/>
		<rect x="491" y="45" width="94" height="72" fill="none" stroke="#578dff" stroke-width="3"/>
		<line x1="491" y1="73" x2="585" y2="73" stroke="#578dff" stroke-width="1.5"/>
	</g>
	<text x="499" y="65.3" fill="#131114" font-family="Arial Black" font-size="13">QUESTION</text>
	<text x="499" y="89.2" fill="#3e3c42" font-family="Arial" font-size="14">answer</text>
	<line x1="499" y1="92" x2="547" y2="92" stroke="#3e3c42" stroke-width="1.2"/>
	<text x="499" y="107.2" fill="#3e3c42" font-family="Arial" font-size="14">content</text>
</g>

<!-- Entity GAME -->
<g id="entity-GAME">
	<g id="frame-GAME">
		<rect x="229" y="9" width="116" height="28" fill="#97b8ff" stroke="#97b8ff" stroke-width="0"/>
		<rect x="229" y="37.0" width="116" height="116" fill="#c0d4ff" stroke="#c0d4ff" stroke-width="0"/>
		<rect x="229" y="9" width="116" height="144" fill="none" stroke="#578dff" stroke-width="3"/>
		<line x1="229" y1="37" x2="345" y2="37" stroke="#578dff" stroke-width="1.5"/>
	</g>
	<text x="265" y="29.3" fill="#131114" font-family="Arial Black" font-size="13">GAME</text>
	<text x="237" y="53.2" fill="#3e3c42" font-family="Arial" font-size="14">room</text>
	<line x1="237" y1="56" x2="271" y2="56" stroke="#3e3c42" stroke-width="1.2"/>
	<text x="237" y="71.2" fill="#3e3c42" font-family="Arial" font-size="14">score</text>
	<text x="237" y="89.2" fill="#3e3c42" font-family="Arial" font-size="14">position</text>
	<text x="237" y="107.2" fill="#3e3c42" font-family="Arial" font-size="14">number_player</text>
	<text x="237" y="125.2" fill="#3e3c42" font-family="Arial" font-size="14">date</text>
	<text x="237" y="143.2" fill="#3e3c42" font-family="Arial" font-size="14">exact_answer</text>
</g>

<!-- Entity CONTACT -->
<g id="entity-CONTACT">
	<g id="frame-CONTACT">
		<rect x="17" y="295" width="88" height="28" fill="#97b8ff" stroke="#97b8ff" stroke-width="0"/>
		<rect x="17" y="323.0" width="88" height="44" fill="#c0d4ff" stroke="#c0d4ff" stroke-width="0"/>
		<rect x="17" y="295" width="88" height="72" fill="none" stroke="#578dff" stroke-width="3"/>
		<line x1="17" y1="323" x2="105" y2="323" stroke="#578dff" stroke-width="1.5"/>
	</g>
	<text x="25" y="315.3" fill="#131114" font-family="Arial Black" font-size="13">CONTACT</text>
	<text x="25" y="339.2" fill="#3e3c42" font-family="Arial" font-size="14">subject</text>
	<line x1="25" y1="342" x2="73" y2="342" stroke="#3e3c42" stroke-width="1.2"/>
	<text x="25" y="357.2" fill="#3e3c42" font-family="Arial" font-size="14">content</text>
</g>

<!-- Entity ROLE -->
<g id="entity-ROLE">
	<g id="frame-ROLE">
		<rect x="389" y="188" width="58" height="28" fill="#97b8ff" stroke="#97b8ff" stroke-width="0"/>
		<rect x="389" y="216.0" width="58" height="44" fill="#c0d4ff" stroke="#c0d4ff" stroke-width="0"/>
		<rect x="389" y="188" width="58" height="72" fill="none" stroke="#578dff" stroke-width="3"/>
		<line x1="389" y1="216" x2="447" y2="216" stroke="#578dff" stroke-width="1.5"/>
	</g>
	<text x="398" y="208.3" fill="#131114" font-family="Arial Black" font-size="13">ROLE</text>
	<text x="397" y="232.2" fill="#3e3c42" font-family="Arial" font-size="14">admin</text>
	<line x1="397" y1="235" x2="438" y2="235" stroke="#3e3c42" stroke-width="1.2"/>
	<text x="397" y="250.2" fill="#3e3c42" font-family="Arial" font-size="14">user</text>
</g>

<!-- Entity USER -->
<g id="entity-USER">
	<g id="frame-USER">
		<rect x="131" y="179" width="80" height="28" fill="#97b8ff" stroke="#97b8ff" stroke-width="0"/>
		<rect x="131" y="207.0" width="80" height="62" fill="#c0d4ff" stroke="#c0d4ff" stroke-width="0"/>
		<rect x="131" y="179" width="80" height="90" fill="none" stroke="#578dff" stroke-width="3"/>
		<line x1="131" y1="207" x2="211" y2="207" stroke="#578dff" stroke-width="1.5"/>
	</g>
	<text x="150" y="199.3" fill="#131114" font-family="Arial Black" font-size="13">USER</text>
	<text x="139" y="223.2" fill="#3e3c42" font-family="Arial" font-size="14">email</text>
	<line x1="139" y1="226" x2="175" y2="226" stroke="#3e3c42" stroke-width="1.2"/>
	<text x="139" y="241.2" fill="#3e3c42" font-family="Arial" font-size="14">password</text>
	<text x="139" y="259.2" fill="#3e3c42" font-family="Arial" font-size="14">pseudo</text>
</g>
</svg>